<svg width="1392" height="417" viewBox="0 0 1392 417" fill="none" xmlns="http://www.w3.org/2000/svg">
<path d="M301.959 308.644C271.266 285.981 263.746 229.721 299.386 195.282C332.426 163.342 384.439 165.39 414.199 201.546C377.106 236.934 339.866 272.473 301.959 308.644ZM411.932 327.468L514.946 226.092C516.186 221.65 515.852 216.801 514.332 210.973C492.946 128.512 411.879 76.1076 326.452 90.0969C244.652 103.484 185.146 179.968 191.026 264.13C196.866 347.766 266.959 414.809 350.999 416.104C406.999 416.104 449.499 416.102 518.212 416.102V327.468H411.932Z" fill="#F7F7F7"/>
<path d="M149.387 336.041C142.613 336.041 137.493 333.654 134 328.874C130.507 324.101 128.76 317.284 128.76 308.424V140.121H170.6V67.0542H128.76V0.444885H45.2V67.0556H0V140.121H45.2V319.96C45.2 351.66 52.3067 375.606 66.5333 391.802C80.7333 408.005 103.12 416.1 133.653 416.1H178.4V336.041H149.387Z" fill="#F7F7F7"/>
<path d="M563.426 416.1H659.799V0.0743103H563.426V416.1Z" fill="#F7F7F7"/>
<path d="M709.492 -0.000427246V416.1H805.866V-0.000427246H709.492Z" fill="#F7F7F7"/>
<path d="M1216.72 162.326L856 416.102L965.77 307.751L1173.74 87.8948L1216.72 162.326Z" fill="#F7F7F7"/>
<path d="M1363.23 416.102H856L1306.86 318.437L1363.23 416.102Z" fill="#E0E0E0"/>
<path d="M1392 252.531L856 416.102L1304.33 100.682L1392 252.531Z" fill="#0F8B8D"/>
<path d="M856 416.102L1229.53 378.333L1392 252.531L856 416.102Z" fill="#143642"/>
</svg>
