<svg width="180" height="40" viewBox="0 0 180 40" fill="none" xmlns="http://www.w3.org/2000/svg">
  <!-- P Icon Box -->
  <rect x="0" y="0" width="40" height="40" rx="8" fill="#0F8B8D"/>
  <!-- P Letter -->
  <path d="M13 10h8c4.418 0 8 3.582 8 8s-3.582 8-8 8h-4v6h-4V10zm4 12h4c2.209 0 4-1.791 4-4s-1.791-4-4-4h-4v8z" fill="white"/>
  <!-- ProductionOS text as paths - white fill for dark backgrounds -->
  <g fill="white">
    <!-- P -->
    <path d="M50 11h5.5c3.2 0 5.5 2 5.5 5s-2.3 5-5.5 5H53v8h-3V11zm3 7.5h2.5c1.5 0 2.5-.8 2.5-2.5s-1-2.5-2.5-2.5H53v5z"/>
    <!-- r -->
    <path d="M63 17h3v2c.7-1.4 2-2.3 3.5-2.3v3c-.3 0-.5 0-.8 0-1.7 0-2.7 1-2.7 3v6.3h-3V17z"/>
    <!-- o -->
    <path d="M71 23c0-3.5 2.5-6.3 6-6.3s6 2.8 6 6.3-2.5 6.3-6 6.3-6-2.8-6-6.3zm9 0c0-2-1.2-3.5-3-3.5s-3 1.5-3 3.5 1.2 3.5 3 3.5 3-1.5 3-3.5z"/>
    <!-- d -->
    <path d="M84 23c0-3.5 2.3-6.3 5.5-6.3 1.8 0 3 .8 3.5 2V10h3v19h-3v-1.7c-.5 1.2-1.7 2-3.5 2-3.2 0-5.5-2.8-5.5-6.3zm9 0c0-2-1.2-3.5-3-3.5s-3 1.5-3 3.5 1.2 3.5 3 3.5 3-1.5 3-3.5z"/>
    <!-- u -->
    <path d="M98 17h3v8c0 1.3.8 2 2 2s2-.7 2-2v-8h3v8.5c0 2.8-2 4.8-5 4.8s-5-2-5-4.8V17z"/>
    <!-- c -->
    <path d="M109 23c0-3.5 2.5-6.3 6-6.3 2.5 0 4.5 1.3 5.3 3.5l-2.8 1c-.4-1.2-1.3-2-2.5-2-1.8 0-3 1.5-3 3.5s1.2 3.5 3 3.5c1.2 0 2.1-.8 2.5-2l2.8 1c-.8 2.2-2.8 3.5-5.3 3.5-3.5 0-6-2.8-6-6.7z"/>
    <!-- t -->
    <path d="M121 12h3v5h3v2.5h-3v6c0 .8.4 1.2 1.2 1.2h1.8v2.8h-2.5c-2.2 0-3.5-1.3-3.5-3.5v-6.5h-2V17h2v-5z"/>
    <!-- i -->
    <path d="M129 17h3v12h-3V17zm0-6h3v3h-3v-3z"/>
    <!-- o -->
    <path d="M134 23c0-3.5 2.5-6.3 6-6.3s6 2.8 6 6.3-2.5 6.3-6 6.3-6-2.8-6-6.3zm9 0c0-2-1.2-3.5-3-3.5s-3 1.5-3 3.5 1.2 3.5 3 3.5 3-1.5 3-3.5z"/>
    <!-- n -->
    <path d="M147 17h3v1.7c.6-1.2 2-2 3.5-2 2.5 0 4 1.7 4 4.3v8h-3v-7c0-1.5-.8-2.5-2.2-2.5-1.5 0-2.3 1-2.3 2.7v6.8h-3V17z"/>
    <!-- O -->
    <path d="M160 20.5c0-5.5 4-9.5 9.5-9.5s9.5 4 9.5 9.5-4 9.5-9.5 9.5-9.5-4-9.5-9.5zm16 0c0-3.8-2.8-6.5-6.5-6.5s-6.5 2.7-6.5 6.5 2.8 6.5 6.5 6.5 6.5-2.7 6.5-6.5z"/>
  </g>
</svg>
